<svg width="16" height="14" viewBox="0 0 16 14" fill="none" xmlns="http://www.w3.org/2000/svg">
<path d="M0.48777 8.88281C0.617134 8.88281 0.7412 8.9342 0.832675 9.02568C0.92415 9.11715 0.975539 9.24122 0.975539 9.37058V11.8094C0.975539 12.0682 1.07832 12.3163 1.26127 12.4992C1.44422 12.6822 1.69235 12.785 1.95108 12.785H13.6576C13.9163 12.785 14.1644 12.6822 14.3474 12.4992C14.5303 12.3163 14.6331 12.0682 14.6331 11.8094V9.37058C14.6331 9.24122 14.6845 9.11715 14.776 9.02568C14.8674 8.9342 14.9915 8.88281 15.1209 8.88281C15.2502 8.88281 15.3743 8.9342 15.4658 9.02568C15.5572 9.11715 15.6086 9.24122 15.6086 9.37058V11.8094C15.6086 12.3269 15.4031 12.8232 15.0372 13.1891C14.6713 13.555 14.175 13.7605 13.6576 13.7605H1.95108C1.43362 13.7605 0.937356 13.555 0.571458 13.1891C0.20556 12.8232 0 12.3269 0 11.8094V9.37058C0 9.24122 0.0513899 9.11715 0.142864 9.02568C0.234339 8.9342 0.358405 8.88281 0.48777 8.88281Z" fill="#737B7D"/>
<path d="M7.45907 10.7887C7.50438 10.8341 7.5582 10.8702 7.61746 10.8948C7.67672 10.9193 7.74025 10.932 7.80441 10.932C7.86857 10.932 7.9321 10.9193 7.99135 10.8948C8.05061 10.8702 8.10444 10.8341 8.14975 10.7887L11.0764 7.86208C11.168 7.77049 11.2194 7.64627 11.2194 7.51674C11.2194 7.38721 11.168 7.26299 11.0764 7.1714C10.9848 7.07981 10.8606 7.02835 10.731 7.02835C10.6015 7.02835 10.4773 7.07981 10.3857 7.1714L8.29218 9.26588V0.687965C8.29218 0.5586 8.24079 0.434534 8.14931 0.34306C8.05784 0.251585 7.93377 0.200195 7.80441 0.200195C7.67504 0.200195 7.55098 0.251585 7.4595 0.34306C7.36803 0.434534 7.31664 0.5586 7.31664 0.687965V9.26588L5.22313 7.1714C5.13154 7.07981 5.00732 7.02835 4.87779 7.02835C4.74826 7.02835 4.62404 7.07981 4.53245 7.1714C4.44086 7.26299 4.3894 7.38721 4.3894 7.51674C4.3894 7.64627 4.44086 7.77049 4.53245 7.86208L7.45907 10.7887Z" fill="#737B7D"/>
</svg>
