<svg width="15" height="15" viewBox="0 0 15 15" fill="none" xmlns="http://www.w3.org/2000/svg">
<path d="M10.3555 3.05587L11.944 4.64362L10.3555 3.05587ZM11.377 1.65712L7.08175 5.95237C6.85982 6.17399 6.70846 6.45636 6.64675 6.76387L6.25 8.74987L8.236 8.35237C8.5435 8.29087 8.8255 8.14012 9.0475 7.91812L13.3427 3.62287C13.4718 3.4938 13.5742 3.34056 13.6441 3.17192C13.7139 3.00328 13.7499 2.82253 13.7499 2.63999C13.7499 2.45746 13.7139 2.27671 13.6441 2.10807C13.5742 1.93942 13.4718 1.78619 13.3427 1.65712C13.2137 1.52805 13.0604 1.42566 12.8918 1.35581C12.7232 1.28595 12.5424 1.25 12.3599 1.25C12.1773 1.25 11.9966 1.28595 11.8279 1.35581C11.6593 1.42566 11.5061 1.52805 11.377 1.65712V1.65712Z" stroke="#737B7D" stroke-linecap="round" stroke-linejoin="round"/>
<path d="M12.25 10.25V12.5C12.25 12.8978 12.092 13.2794 11.8107 13.5607C11.5294 13.842 11.1478 14 10.75 14H2.5C2.10218 14 1.72064 13.842 1.43934 13.5607C1.15804 13.2794 1 12.8978 1 12.5V4.25C1 3.85218 1.15804 3.47064 1.43934 3.18934C1.72064 2.90804 2.10218 2.75 2.5 2.75H4.75" stroke="#737B7D" stroke-linecap="round" stroke-linejoin="round"/>
</svg>
