<svg width="27" height="27" viewBox="0 0 27 27" fill="none" xmlns="http://www.w3.org/2000/svg">
<path d="M23 1H3.75C2.23122 1 1 2.23122 1 3.75V23C1 24.5188 2.23122 25.75 3.75 25.75H23C24.5188 25.75 25.75 24.5188 25.75 23V3.75C25.75 2.23122 24.5188 1 23 1Z" stroke="#3C64B1" stroke-width="1.5" stroke-linecap="round" stroke-linejoin="round"/>
<path d="M8.56274 10.625C9.70183 10.625 10.6252 9.70159 10.6252 8.5625C10.6252 7.42341 9.70183 6.5 8.56274 6.5C7.42366 6.5 6.50024 7.42341 6.50024 8.5625C6.50024 9.70159 7.42366 10.625 8.56274 10.625Z" stroke="#3C64B1" stroke-width="1.5" stroke-linecap="round" stroke-linejoin="round"/>
<path d="M25.7498 17.5L18.8748 10.625L3.74976 25.75" stroke="#3C64B1" stroke-width="1.5" stroke-linecap="round" stroke-linejoin="round"/>
</svg>
