<svg width="13" height="13" viewBox="0 0 13 13" fill="none" xmlns="http://www.w3.org/2000/svg">
<path d="M10.9687 0.812755C10.6455 0.812755 10.3355 0.941159 10.1069 1.16972C9.87838 1.39828 9.74997 1.70827 9.74997 2.03151C9.74997 2.35474 9.87838 2.66473 10.1069 2.89329C10.3355 3.12185 10.6455 3.25026 10.9687 3.25026C11.292 3.25026 11.6019 3.12185 11.8305 2.89329C12.0591 2.66473 12.1875 2.35474 12.1875 2.03151C12.1875 1.70827 12.0591 1.39828 11.8305 1.16972C11.6019 0.941159 11.292 0.812755 10.9687 0.812755ZM8.93747 2.03151C8.93741 1.55492 9.10493 1.09349 9.41073 0.727939C9.71652 0.362392 10.1411 0.116007 10.6102 0.0318916C11.0793 -0.0522236 11.5631 0.0312873 11.9768 0.267813C12.3906 0.504339 12.708 0.878819 12.8735 1.32573C13.039 1.77265 13.0422 2.26354 12.8823 2.71252C12.7225 3.1615 12.4098 3.53998 11.9991 3.78175C11.5884 4.02351 11.1058 4.11316 10.6356 4.03501C10.1655 3.95686 9.73782 3.71589 9.42741 3.35426L3.96903 5.88926C4.09452 6.28692 4.09452 6.71359 3.96903 7.11125L9.42741 9.64625C9.75553 9.26465 10.2136 9.01844 10.7129 8.95535C11.2122 8.89225 11.7172 9.01677 12.1299 9.30476C12.5427 9.59274 12.8338 10.0237 12.9469 10.5141C13.06 11.0045 12.987 11.5194 12.7421 11.9591C12.4972 12.3988 12.0977 12.7318 11.6212 12.8938C11.1447 13.0557 10.6251 13.035 10.1629 12.8357C9.70084 12.6363 9.3292 12.2725 9.12005 11.8147C8.9109 11.357 8.87914 10.8379 9.03091 10.358L3.57253 7.82301C3.30232 8.13791 2.94216 8.3625 2.54048 8.46657C2.1388 8.57065 1.71489 8.54921 1.32576 8.40514C0.936631 8.26108 0.600958 8.00129 0.363896 7.66074C0.126834 7.32018 -0.000244141 6.9152 -0.000244141 6.50026C-0.000244141 6.08531 0.126834 5.68033 0.363896 5.33977C0.600958 4.99922 0.936631 4.73943 1.32576 4.59537C1.71489 4.4513 2.1388 4.42986 2.54048 4.53394C2.94216 4.63801 3.30232 4.8626 3.57253 5.17751L9.03091 2.64251C8.96878 2.4448 8.93727 2.23875 8.93747 2.03151ZM2.03122 5.28151C1.70799 5.28151 1.398 5.40991 1.16944 5.63847C0.940875 5.86703 0.812471 6.17702 0.812471 6.50026C0.812471 6.82349 0.940875 7.13348 1.16944 7.36204C1.398 7.5906 1.70799 7.71901 2.03122 7.71901C2.35445 7.71901 2.66445 7.5906 2.89301 7.36204C3.12157 7.13348 3.24997 6.82349 3.24997 6.50026C3.24997 6.17702 3.12157 5.86703 2.89301 5.63847C2.66445 5.40991 2.35445 5.28151 2.03122 5.28151ZM10.9687 9.75025C10.6455 9.75025 10.3355 9.87866 10.1069 10.1072C9.87838 10.3358 9.74997 10.6458 9.74997 10.969C9.74997 11.2922 9.87838 11.6022 10.1069 11.8308C10.3355 12.0594 10.6455 12.1878 10.9687 12.1878C11.292 12.1878 11.6019 12.0594 11.8305 11.8308C12.0591 11.6022 12.1875 11.2922 12.1875 10.969C12.1875 10.6458 12.0591 10.3358 11.8305 10.1072C11.6019 9.87866 11.292 9.75025 10.9687 9.75025Z" fill="#737B7D"/>
</svg>
