<svg width="27" height="27" viewBox="0 0 27 27" fill="none" xmlns="http://www.w3.org/2000/svg">
<path d="M4.00309 21.6173C6.29258 18.9412 9.70005 17.2464 13.5 17.2464C17.3 17.2464 20.7015 18.9412 22.991 21.6173M26 13.5C26 20.4036 20.4036 26 13.5 26C6.59644 26 1 20.4036 1 13.5C1 6.59644 6.59644 1 13.5 1C20.4036 1 26 6.59644 26 13.5ZM17.0323 10.259C17.0323 12.2099 15.4509 13.7914 13.5 13.7914C11.5491 13.7914 9.96765 12.2099 9.96765 10.259C9.96765 8.30817 11.5491 6.72669 13.5 6.72669C15.4509 6.72669 17.0323 8.30817 17.0323 10.259Z" stroke="#3C64B1" stroke-width="2" stroke-miterlimit="10"/>
</svg>
