<svg width="41" height="41" viewBox="0 0 41 41" fill="none" xmlns="http://www.w3.org/2000/svg">
<g opacity="0.5">
<path d="M32.4583 5.125H8.54167C6.65469 5.125 5.125 6.65469 5.125 8.54167V32.4583C5.125 34.3453 6.65469 35.875 8.54167 35.875H32.4583C34.3453 35.875 35.875 34.3453 35.875 32.4583V8.54167C35.875 6.65469 34.3453 5.125 32.4583 5.125Z" stroke="#3C64B1" stroke-width="1.5" stroke-linecap="round" stroke-linejoin="round"/>
<path d="M14.521 17.083C15.9362 17.083 17.0835 15.9357 17.0835 14.5205C17.0835 13.1053 15.9362 11.958 14.521 11.958C13.1058 11.958 11.9585 13.1053 11.9585 14.5205C11.9585 15.9357 13.1058 17.083 14.521 17.083Z" stroke="#3C64B1" stroke-width="1.5" stroke-linecap="round" stroke-linejoin="round"/>
<path d="M35.8748 25.6247L27.3332 17.083L8.5415 35.8747" stroke="#3C64B1" stroke-width="1.5" stroke-linecap="round" stroke-linejoin="round"/>
</g>
</svg>
