<svg width="41" height="41" viewBox="0 0 41 41" fill="none" xmlns="http://www.w3.org/2000/svg">
<circle cx="20.5" cy="20.5" r="20.5" fill="white"/>
<g opacity="0.5" clip-path="url(#clip0)">
<path d="M11.4699 21.0956C11.6297 21.0956 11.7829 21.1591 11.8959 21.272C12.0088 21.385 12.0723 21.5382 12.0723 21.698V24.7098C12.0723 25.0293 12.1992 25.3357 12.4251 25.5617C12.6511 25.7876 12.9575 25.9145 13.277 25.9145H27.7338C28.0533 25.9145 28.3597 25.7876 28.5857 25.5617C28.8116 25.3357 28.9385 25.0293 28.9385 24.7098V21.698C28.9385 21.5382 29.002 21.385 29.115 21.272C29.2279 21.1591 29.3811 21.0956 29.5409 21.0956C29.7007 21.0956 29.8539 21.1591 29.9668 21.272C30.0798 21.385 30.1433 21.5382 30.1433 21.698V24.7098C30.1433 25.3488 29.8894 25.9617 29.4376 26.4135C28.9857 26.8654 28.3728 27.1192 27.7338 27.1192H13.277C12.638 27.1192 12.0251 26.8654 11.5733 26.4135C11.1214 25.9617 10.8676 25.3488 10.8676 24.7098V21.698C10.8676 21.5382 10.931 21.385 11.044 21.272C11.1569 21.1591 11.3102 21.0956 11.4699 21.0956Z" fill="#3C64B1"/>
<path d="M20.0921 23.4497C20.1481 23.5057 20.2145 23.5503 20.2877 23.5806C20.3609 23.611 20.4394 23.6266 20.5186 23.6266C20.5978 23.6266 20.6763 23.611 20.7495 23.5806C20.8226 23.5503 20.8891 23.5057 20.9451 23.4497L24.5593 19.8355C24.6724 19.7223 24.7359 19.5689 24.7359 19.409C24.7359 19.249 24.6724 19.0956 24.5593 18.9825C24.4462 18.8694 24.2928 18.8059 24.1328 18.8059C23.9728 18.8059 23.8194 18.8694 23.7063 18.9825L21.121 21.5691V10.9759C21.121 10.8161 21.0575 10.6629 20.9445 10.5499C20.8316 10.437 20.6784 10.3735 20.5186 10.3735C20.3588 10.3735 20.2056 10.437 20.0927 10.5499C19.9797 10.6629 19.9162 10.8161 19.9162 10.9759V21.5691L17.3309 18.9825C17.2178 18.8694 17.0644 18.8059 16.9044 18.8059C16.7444 18.8059 16.591 18.8694 16.4779 18.9825C16.3648 19.0956 16.3013 19.249 16.3013 19.409C16.3013 19.5689 16.3648 19.7223 16.4779 19.8355L20.0921 23.4497Z" fill="#3C64B1"/>
</g>
<defs>
<clipPath id="clip0">
<rect width="19.759" height="19.759" fill="white" transform="translate(10.8676 8.89159)"/>
</clipPath>
</defs>
</svg>
