<svg width="110" height="110" viewBox="0 0 110 110" fill="none" xmlns="http://www.w3.org/2000/svg">
<circle cx="55" cy="55" r="55" fill="white"/>
<g opacity="0.5" clip-path="url(#clip0)">
<path d="M30.7726 56.5981C31.2012 56.5981 31.6123 56.7684 31.9154 57.0715C32.2184 57.3746 32.3887 57.7856 32.3887 58.2142V66.2948C32.3887 67.152 32.7292 67.9741 33.3354 68.5803C33.9416 69.1864 34.7637 69.527 35.6209 69.527H74.4074C75.2647 69.527 76.0868 69.1864 76.6929 68.5803C77.2991 67.9741 77.6396 67.152 77.6396 66.2948V58.2142C77.6396 57.7856 77.8099 57.3746 78.113 57.0715C78.416 56.7684 78.8271 56.5981 79.2557 56.5981C79.6843 56.5981 80.0954 56.7684 80.3985 57.0715C80.7016 57.3746 80.8718 57.7856 80.8718 58.2142V66.2948C80.8718 68.0092 80.1908 69.6535 78.9784 70.8658C77.7661 72.0781 76.1219 72.7592 74.4074 72.7592H35.6209C33.9064 72.7592 32.2622 72.0781 31.0499 70.8658C29.8376 69.6535 29.1565 68.0092 29.1565 66.2948V58.2142C29.1565 57.7856 29.3268 57.3746 29.6298 57.0715C29.9329 56.7684 30.344 56.5981 30.7726 56.5981Z" fill="#3C64B1"/>
<path d="M53.9056 62.9138C54.0557 63.0643 54.234 63.1837 54.4304 63.2652C54.6267 63.3467 54.8372 63.3886 55.0498 63.3886C55.2623 63.3886 55.4728 63.3467 55.6692 63.2652C55.8655 63.1837 56.0438 63.0643 56.194 62.9138L65.8906 53.2172C66.1941 52.9137 66.3645 52.5021 66.3645 52.073C66.3645 51.6438 66.1941 51.2322 65.8906 50.9288C65.5871 50.6253 65.1755 50.4548 64.7464 50.4548C64.3172 50.4548 63.9056 50.6253 63.6022 50.9288L56.6659 57.8683V29.4475C56.6659 29.0189 56.4956 28.6078 56.1925 28.3048C55.8894 28.0017 55.4784 27.8314 55.0498 27.8314C54.6211 27.8314 54.2101 28.0017 53.907 28.3048C53.6039 28.6078 53.4337 29.0189 53.4337 29.4475V57.8683L46.4973 50.9288C46.1939 50.6253 45.7823 50.4548 45.3531 50.4548C44.924 50.4548 44.5124 50.6253 44.2089 50.9288C43.9055 51.2322 43.735 51.6438 43.735 52.073C43.735 52.5021 43.9055 52.9137 44.2089 53.2172L53.9056 62.9138Z" fill="#3C64B1"/>
</g>
<defs>
<clipPath id="clip0">
<rect width="53.012" height="53.012" fill="white" transform="translate(29.1565 23.8555)"/>
</clipPath>
</defs>
</svg>
