<?xml version="1.0" encoding="utf-8"?>
<!-- Generator: Adobe Illustrator 25.2.3, SVG Export Plug-In . SVG Version: 6.00 Build 0)  -->
<svg version="1.1" id="Calque_1" xmlns="http://www.w3.org/2000/svg" xmlns:xlink="http://www.w3.org/1999/xlink" x="0px" y="0px"
	 viewBox="0 0 1920 1080" style="enable-background:new 0 0 1920 1080;" xml:space="preserve">
<style type="text/css">
	.st0{fill:#FF0034;}
</style>
<g>
	<polygon class="st0" points="1207.84,742.78 1252.91,742.78 1252.91,697.72 1207.84,652.66 1162.78,652.66 1162.78,697.72 	"/>
	<polygon class="st0" points="1388.09,742.78 1433.16,742.78 1433.16,697.72 1388.09,652.66 1343.03,652.66 1343.03,697.72 	"/>
	<polygon class="st0" points="1117.72,607.59 1162.78,607.59 1162.78,652.66 1117.72,697.72 1072.66,697.72 1072.66,652.66 	"/>
	<polygon class="st0" points="1297.97,607.59 1343.03,607.59 1343.03,652.66 1297.97,697.72 1252.91,697.72 1252.91,652.66 	"/>
	<polygon class="st0" points="847.34,742.78 892.41,742.78 892.41,697.72 847.34,652.66 802.28,652.66 802.28,697.72 	"/>
	<polygon class="st0" points="1027.59,742.78 1072.66,742.78 1072.66,697.72 1027.59,652.66 982.53,652.66 982.53,697.72 	"/>
	<polygon class="st0" points="757.22,607.59 802.28,607.59 802.28,652.66 757.22,697.72 712.16,697.72 712.16,652.66 	"/>
	<polygon class="st0" points="937.47,607.59 982.53,607.59 982.53,652.66 937.47,697.72 892.41,697.72 892.41,652.66 	"/>
	<polygon class="st0" points="486.84,742.78 531.91,742.78 531.91,697.72 486.84,652.66 441.78,652.66 441.78,697.72 	"/>
	<polygon class="st0" points="667.09,742.78 712.16,742.78 712.16,697.72 667.09,652.66 622.03,652.66 622.03,697.72 	"/>
	<polygon class="st0" points="576.97,607.59 622.03,607.59 622.03,652.66 576.97,697.72 531.91,697.72 531.91,652.66 	"/>
	<polygon class="st0" points="1343.03,607.59 1388.09,607.59 1388.09,562.53 1343.03,517.47 1297.97,517.47 1297.97,562.53 	"/>
	<polygon class="st0" points="1252.91,472.41 1297.97,472.41 1297.97,517.47 1252.91,562.53 1207.84,562.53 1207.84,517.47 	"/>
	<polygon class="st0" points="1433.16,472.41 1478.22,472.41 1478.22,517.47 1433.16,562.53 1388.09,562.53 1388.09,517.47 	"/>
	<polygon class="st0" points="1207.84,472.41 1252.91,472.41 1252.91,427.34 1207.84,382.28 1162.78,382.28 1162.78,427.34 	"/>
	<polygon class="st0" points="1388.09,472.41 1433.16,472.41 1433.16,427.34 1388.09,382.28 1343.03,382.28 1343.03,427.34 	"/>
	<polygon class="st0" points="1117.72,337.22 1162.78,337.22 1162.78,382.28 1117.72,427.34 1072.66,427.34 1072.66,382.28 	"/>
	<polygon class="st0" points="1297.97,337.22 1343.03,337.22 1343.03,382.28 1297.97,427.34 1252.91,427.34 1252.91,382.28 	"/>
	<polygon class="st0" points="982.53,607.59 1027.59,607.59 1027.59,562.53 982.53,517.47 937.47,517.47 937.47,562.53 	"/>
	<polygon class="st0" points="1162.78,607.59 1207.84,607.59 1207.84,562.53 1162.78,517.47 1117.72,517.47 1117.72,562.53 	"/>
	<polygon class="st0" points="892.41,472.41 937.47,472.41 937.47,517.47 892.41,562.53 847.34,562.53 847.34,517.47 	"/>
	<polygon class="st0" points="1072.66,472.41 1117.72,472.41 1117.72,517.47 1072.66,562.53 1027.59,562.53 1027.59,517.47 	"/>
	<polygon class="st0" points="622.03,607.59 667.09,607.59 667.09,562.53 622.03,517.47 576.97,517.47 576.97,562.53 	"/>
	<polygon class="st0" points="802.28,607.59 847.34,607.59 847.34,562.53 802.28,517.47 757.22,517.47 757.22,562.53 	"/>
	<polygon class="st0" points="531.91,472.41 576.97,472.41 576.97,517.47 531.91,562.53 486.84,562.53 486.84,517.47 	"/>
	<polygon class="st0" points="712.16,472.41 757.22,472.41 757.22,517.47 712.16,562.53 667.09,562.53 667.09,517.47 	"/>
	<polygon class="st0" points="847.34,472.41 892.41,472.41 892.41,427.34 847.34,382.28 802.28,382.28 802.28,427.34 	"/>
	<polygon class="st0" points="1027.59,472.41 1072.66,472.41 1072.66,427.34 1027.59,382.28 982.53,382.28 982.53,427.34 	"/>
	<polygon class="st0" points="757.22,337.22 802.28,337.22 802.28,382.28 757.22,427.34 712.16,427.34 712.16,382.28 	"/>
	<polygon class="st0" points="937.47,337.22 982.53,337.22 982.53,382.28 937.47,427.34 892.41,427.34 892.41,382.28 	"/>
	<polygon class="st0" points="486.84,472.41 531.91,472.41 531.91,427.34 486.84,382.28 441.78,382.28 441.78,427.34 	"/>
	<polygon class="st0" points="667.09,472.41 712.16,472.41 712.16,427.34 667.09,382.28 622.03,382.28 622.03,427.34 	"/>
	<polygon class="st0" points="576.97,337.22 622.03,337.22 622.03,382.28 576.97,427.34 531.91,427.34 531.91,382.28 	"/>
</g>
</svg>
