<?xml version="1.0" encoding="utf-8"?>
<!-- Generator: Adobe Illustrator 25.2.3, SVG Export Plug-In . SVG Version: 6.00 Build 0)  -->
<svg version="1.1" id="Calque_1" xmlns="http://www.w3.org/2000/svg" xmlns:xlink="http://www.w3.org/1999/xlink" x="0px" y="0px"
	 viewBox="0 0 1920 1080" style="enable-background:new 0 0 1920 1080;" xml:space="preserve">
<style type="text/css">
	.st0{fill:#FF0034;}
</style>
<g>
	<polygon class="st0" points="734.69,472.41 779.75,472.41 779.75,427.35 734.69,382.28 689.63,382.28 689.62,427.35 	"/>
	<polygon class="st0" points="734.69,562.53 779.75,562.53 779.75,517.47 734.69,472.41 689.63,472.41 689.62,517.47 	"/>
	<polygon class="st0" points="734.69,652.65 779.75,652.65 779.75,607.59 734.69,562.53 689.63,562.53 689.62,607.59 	"/>
	<polygon class="st0" points="734.69,742.78 779.75,742.78 779.75,697.72 734.69,652.65 689.63,652.65 689.62,697.72 	"/>
	<polygon class="st0" points="914.94,472.41 960,472.41 960,427.35 914.94,382.28 869.88,382.28 869.88,427.35 	"/>
	<polygon class="st0" points="914.94,562.53 960,562.53 960,517.47 914.94,472.41 869.88,472.41 869.88,517.47 	"/>
	<polygon class="st0" points="914.94,652.65 960,652.65 960,607.59 914.94,562.53 869.88,562.53 869.88,607.59 	"/>
	<polygon class="st0" points="914.94,742.78 960,742.78 960,697.72 914.94,652.65 869.88,652.65 869.88,697.72 	"/>
	<polygon class="st0" points="644.56,607.59 689.62,607.59 689.62,652.65 644.56,697.72 599.5,697.72 599.5,652.65 	"/>
	<polygon class="st0" points="644.56,517.47 689.62,517.47 689.62,562.53 644.56,607.59 599.5,607.59 599.5,562.53 	"/>
	<polygon class="st0" points="644.56,427.35 689.62,427.35 689.62,472.41 644.56,517.47 599.5,517.47 599.5,472.41 	"/>
	<polygon class="st0" points="644.56,337.22 689.62,337.22 689.62,382.28 644.56,427.35 599.5,427.35 599.5,382.28 	"/>
	<polygon class="st0" points="824.81,607.59 869.87,607.59 869.88,652.65 824.81,697.72 779.75,697.72 779.75,652.65 	"/>
	<polygon class="st0" points="824.81,517.47 869.87,517.47 869.88,562.53 824.81,607.59 779.75,607.59 779.75,562.53 	"/>
	<polygon class="st0" points="824.81,427.35 869.87,427.35 869.88,472.41 824.81,517.47 779.75,517.47 779.75,472.41 	"/>
	<polygon class="st0" points="824.81,337.22 869.87,337.22 869.88,382.28 824.81,427.35 779.75,427.35 779.75,382.28 	"/>
	<polygon class="st0" points="1095.19,472.41 1140.25,472.41 1140.25,427.35 1095.19,382.28 1050.12,382.28 1050.12,427.35 	"/>
	<polygon class="st0" points="1095.19,562.53 1140.25,562.53 1140.25,517.47 1095.19,472.41 1050.12,472.41 1050.12,517.47 	"/>
	<polygon class="st0" points="1095.19,652.65 1140.25,652.65 1140.25,607.59 1095.19,562.53 1050.12,562.53 1050.12,607.59 	"/>
	<polygon class="st0" points="1095.19,742.78 1140.25,742.78 1140.25,697.72 1095.19,652.65 1050.12,652.65 1050.12,697.72 	"/>
	<polygon class="st0" points="1275.44,472.41 1320.5,472.41 1320.5,427.35 1275.44,382.28 1230.38,382.28 1230.38,427.35 	"/>
	<polygon class="st0" points="1275.44,562.53 1320.5,562.53 1320.5,517.47 1275.44,472.41 1230.38,472.41 1230.38,517.47 	"/>
	<polygon class="st0" points="1275.44,652.65 1320.5,652.65 1320.5,607.59 1275.44,562.53 1230.38,562.53 1230.38,607.59 	"/>
	<polygon class="st0" points="1275.44,742.78 1320.5,742.78 1320.5,697.72 1275.44,652.65 1230.38,652.65 1230.38,697.72 	"/>
	<polygon class="st0" points="1005.06,607.59 1050.12,607.59 1050.12,652.65 1005.06,697.72 960,697.72 960,652.65 	"/>
	<polygon class="st0" points="1005.06,517.47 1050.12,517.47 1050.12,562.53 1005.06,607.59 960,607.59 960,562.53 	"/>
	<polygon class="st0" points="1005.06,427.35 1050.12,427.35 1050.12,472.41 1005.06,517.47 960,517.47 960,472.41 	"/>
	<polygon class="st0" points="1005.06,337.22 1050.12,337.22 1050.12,382.28 1005.06,427.35 960,427.35 960,382.28 	"/>
	<polygon class="st0" points="1185.31,607.59 1230.38,607.59 1230.38,652.65 1185.31,697.72 1140.25,697.72 1140.25,652.65 	"/>
	<polygon class="st0" points="1185.31,517.47 1230.38,517.47 1230.38,562.53 1185.31,607.59 1140.25,607.59 1140.25,562.53 	"/>
	<polygon class="st0" points="1185.31,427.35 1230.38,427.35 1230.38,472.41 1185.31,517.47 1140.25,517.47 1140.25,472.41 	"/>
	<polygon class="st0" points="1185.31,337.22 1230.38,337.22 1230.38,382.28 1185.31,427.35 1140.25,427.35 1140.25,382.28 	"/>
</g>
</svg>
