<?xml version="1.0" encoding="utf-8"?>
<!-- Generator: Adobe Illustrator 25.2.3, SVG Export Plug-In . SVG Version: 6.00 Build 0)  -->
<svg version="1.1" id="Calque_1" xmlns="http://www.w3.org/2000/svg" xmlns:xlink="http://www.w3.org/1999/xlink" x="0px" y="0px"
	 viewBox="0 0 1920 1080" style="enable-background:new 0 0 1920 1080;" xml:space="preserve">
<style type="text/css">
	.st0{fill:#FF0034;}
</style>
<g>
	<polygon class="st0" points="486.84,292.16 441.78,292.16 441.78,337.22 486.84,382.28 531.91,382.28 531.91,337.22 	"/>
	<polygon class="st0" points="622.03,292.16 576.97,292.16 576.97,337.22 622.03,382.28 667.09,382.28 667.09,337.22 	"/>
	<polygon class="st0" points="486.84,427.34 441.78,427.34 441.78,472.41 486.84,517.47 531.91,517.47 531.91,472.41 	"/>
	<polygon class="st0" points="622.03,427.34 576.97,427.34 576.97,472.41 622.03,517.47 667.09,517.47 667.09,472.41 	"/>
	<polygon class="st0" points="486.84,562.53 441.78,562.53 441.78,607.59 486.84,652.66 531.91,652.66 531.91,607.59 	"/>
	<polygon class="st0" points="622.03,562.53 576.97,562.53 576.97,607.59 622.03,652.66 667.09,652.66 667.09,607.59 	"/>
	<polygon class="st0" points="486.84,697.72 441.78,697.72 441.78,742.78 486.84,787.84 531.91,787.84 531.91,742.78 	"/>
	<polygon class="st0" points="622.03,697.72 576.97,697.72 576.97,742.78 622.03,787.84 667.09,787.84 667.09,742.78 	"/>
	<polygon class="st0" points="757.22,292.16 712.16,292.16 712.16,337.22 757.22,382.28 802.28,382.28 802.28,337.22 	"/>
	<polygon class="st0" points="892.41,292.16 847.34,292.16 847.34,337.22 892.41,382.28 937.47,382.28 937.47,337.22 	"/>
	<polygon class="st0" points="757.22,427.34 712.16,427.34 712.16,472.41 757.22,517.47 802.28,517.47 802.28,472.41 	"/>
	<polygon class="st0" points="892.41,427.34 847.34,427.34 847.34,472.41 892.41,517.47 937.47,517.47 937.47,472.41 	"/>
	<polygon class="st0" points="757.22,562.53 712.16,562.53 712.16,607.59 757.22,652.66 802.28,652.66 802.28,607.59 	"/>
	<polygon class="st0" points="892.41,562.53 847.34,562.53 847.34,607.59 892.41,652.66 937.47,652.66 937.47,607.59 	"/>
	<polygon class="st0" points="757.22,697.72 712.16,697.72 712.16,742.78 757.22,787.84 802.28,787.84 802.28,742.78 	"/>
	<polygon class="st0" points="892.41,697.72 847.34,697.72 847.34,742.78 892.41,787.84 937.47,787.84 937.47,742.78 	"/>
	<polygon class="st0" points="1027.59,292.16 982.53,292.16 982.53,337.22 1027.59,382.28 1072.66,382.28 1072.66,337.22 	"/>
	<polygon class="st0" points="1162.78,292.16 1117.72,292.16 1117.72,337.22 1162.78,382.28 1207.84,382.28 1207.84,337.22 	"/>
	<polygon class="st0" points="1027.59,427.34 982.53,427.34 982.53,472.41 1027.59,517.47 1072.66,517.47 1072.66,472.41 	"/>
	<polygon class="st0" points="1162.78,427.34 1117.72,427.34 1117.72,472.41 1162.78,517.47 1207.84,517.47 1207.84,472.41 	"/>
	<polygon class="st0" points="1027.59,562.53 982.53,562.53 982.53,607.59 1027.59,652.66 1072.66,652.66 1072.66,607.59 	"/>
	<polygon class="st0" points="1162.78,562.53 1117.72,562.53 1117.72,607.59 1162.78,652.66 1207.84,652.66 1207.84,607.59 	"/>
	<polygon class="st0" points="1027.59,697.72 982.53,697.72 982.53,742.78 1027.59,787.84 1072.66,787.84 1072.66,742.78 	"/>
	<polygon class="st0" points="1162.78,697.72 1117.72,697.72 1117.72,742.78 1162.78,787.84 1207.84,787.84 1207.84,742.78 	"/>
	<polygon class="st0" points="1297.97,292.16 1252.91,292.16 1252.91,337.22 1297.97,382.28 1343.03,382.28 1343.03,337.22 	"/>
	<polygon class="st0" points="1433.16,292.16 1388.09,292.16 1388.09,337.22 1433.16,382.28 1478.22,382.28 1478.22,337.22 	"/>
	<polygon class="st0" points="1297.97,427.34 1252.91,427.34 1252.91,472.41 1297.97,517.47 1343.03,517.47 1343.03,472.41 	"/>
	<polygon class="st0" points="1433.16,427.34 1388.09,427.34 1388.09,472.41 1433.16,517.47 1478.22,517.47 1478.22,472.41 	"/>
	<polygon class="st0" points="1297.97,562.53 1252.91,562.53 1252.91,607.59 1297.97,652.66 1343.03,652.66 1343.03,607.59 	"/>
	<polygon class="st0" points="1433.16,562.53 1388.09,562.53 1388.09,607.59 1433.16,652.66 1478.22,652.66 1478.22,607.59 	"/>
	<polygon class="st0" points="1297.97,697.72 1252.91,697.72 1252.91,742.78 1297.97,787.84 1343.03,787.84 1343.03,742.78 	"/>
	<polygon class="st0" points="1433.16,697.72 1388.09,697.72 1388.09,742.78 1433.16,787.84 1478.22,787.84 1478.22,742.78 	"/>
</g>
</svg>
