<?xml version="1.0" encoding="utf-8"?>
<!-- Generator: Adobe Illustrator 25.2.3, SVG Export Plug-In . SVG Version: 6.00 Build 0)  -->
<svg version="1.1" id="Calque_1" xmlns="http://www.w3.org/2000/svg" xmlns:xlink="http://www.w3.org/1999/xlink" x="0px" y="0px"
	 viewBox="0 0 1920 1080" style="enable-background:new 0 0 1920 1080;" xml:space="preserve">
<style type="text/css">
	.st0{fill:#FF0034;}
</style>
<g>
	<polygon class="st0" points="644.56,359.75 599.5,359.75 599.5,404.81 644.56,449.88 689.62,449.88 689.62,404.81 	"/>
	<polygon class="st0" points="734.69,359.75 689.62,359.75 689.62,404.81 734.69,449.88 779.75,449.88 779.75,404.81 	"/>
	<polygon class="st0" points="824.81,359.75 779.75,359.75 779.75,404.81 824.81,449.88 869.88,449.88 869.88,404.81 	"/>
	<polygon class="st0" points="914.94,359.75 869.88,359.75 869.88,404.81 914.94,449.88 960,449.88 960,404.81 	"/>
	<polygon class="st0" points="1005.06,359.75 960,359.75 960,404.81 1005.06,449.88 1050.12,449.88 1050.12,404.81 	"/>
	<polygon class="st0" points="1095.19,359.75 1050.12,359.75 1050.12,404.81 1095.19,449.88 1140.25,449.88 1140.25,404.81 	"/>
	<polygon class="st0" points="1185.31,359.75 1140.25,359.75 1140.25,404.81 1185.31,449.88 1230.38,449.88 1230.38,404.81 	"/>
	<polygon class="st0" points="1275.44,359.75 1230.38,359.75 1230.38,404.81 1275.44,449.88 1320.5,449.88 1320.5,404.81 	"/>
	<polygon class="st0" points="644.56,449.88 599.5,449.88 599.5,494.94 644.56,540 689.62,540 689.62,494.94 	"/>
	<polygon class="st0" points="734.69,449.88 689.62,449.88 689.62,494.94 734.69,540 779.75,540 779.75,494.94 	"/>
	<polygon class="st0" points="824.81,449.88 779.75,449.88 779.75,494.94 824.81,540 869.88,540 869.88,494.94 	"/>
	<polygon class="st0" points="914.94,449.88 869.88,449.88 869.88,494.94 914.94,540 960,540 960,494.94 	"/>
	<polygon class="st0" points="1005.06,449.88 960,449.88 960,494.94 1005.06,540 1050.12,540 1050.12,494.94 	"/>
	<polygon class="st0" points="1095.19,449.88 1050.12,449.88 1050.12,494.94 1095.19,540 1140.25,540 1140.25,494.94 	"/>
	<polygon class="st0" points="1185.31,449.88 1140.25,449.88 1140.25,494.94 1185.31,540 1230.38,540 1230.38,494.94 	"/>
	<polygon class="st0" points="1275.44,449.88 1230.38,449.88 1230.38,494.94 1275.44,540 1320.5,540 1320.5,494.94 	"/>
	<polygon class="st0" points="644.56,540 599.5,540 599.5,585.06 644.56,630.12 689.62,630.12 689.62,585.06 	"/>
	<polygon class="st0" points="734.69,540 689.62,540 689.62,585.06 734.69,630.12 779.75,630.12 779.75,585.06 	"/>
	<polygon class="st0" points="824.81,540 779.75,540 779.75,585.06 824.81,630.12 869.88,630.12 869.88,585.06 	"/>
	<polygon class="st0" points="914.94,540 869.88,540 869.88,585.06 914.94,630.12 960,630.12 960,585.06 	"/>
	<polygon class="st0" points="1005.06,540 960,540 960,585.06 1005.06,630.12 1050.12,630.12 1050.12,585.06 	"/>
	<polygon class="st0" points="1095.19,540 1050.12,540 1050.12,585.06 1095.19,630.12 1140.25,630.12 1140.25,585.06 	"/>
	<polygon class="st0" points="1185.31,540 1140.25,540 1140.25,585.06 1185.31,630.12 1230.38,630.12 1230.38,585.06 	"/>
	<polygon class="st0" points="1275.44,540 1230.38,540 1230.38,585.06 1275.44,630.12 1320.5,630.12 1320.5,585.06 	"/>
	<polygon class="st0" points="644.56,630.12 599.5,630.12 599.5,675.19 644.56,720.25 689.62,720.25 689.62,675.19 	"/>
	<polygon class="st0" points="734.69,630.12 689.62,630.12 689.62,675.19 734.69,720.25 779.75,720.25 779.75,675.19 	"/>
	<polygon class="st0" points="824.81,630.12 779.75,630.12 779.75,675.19 824.81,720.25 869.88,720.25 869.88,675.19 	"/>
	<polygon class="st0" points="914.94,630.12 869.88,630.12 869.88,675.19 914.94,720.25 960,720.25 960,675.19 	"/>
	<polygon class="st0" points="1005.06,630.12 960,630.12 960,675.19 1005.06,720.25 1050.12,720.25 1050.12,675.19 	"/>
	<polygon class="st0" points="1095.19,630.12 1050.12,630.12 1050.12,675.19 1095.19,720.25 1140.25,720.25 1140.25,675.19 	"/>
	<polygon class="st0" points="1185.31,630.12 1140.25,630.12 1140.25,675.19 1185.31,720.25 1230.38,720.25 1230.38,675.19 	"/>
	<polygon class="st0" points="1275.44,630.12 1230.38,630.12 1230.38,675.19 1275.44,720.25 1320.5,720.25 1320.5,675.19 	"/>
</g>
</svg>
