<?xml version="1.0" encoding="utf-8"?>
<!-- Generator: Adobe Illustrator 25.2.3, SVG Export Plug-In . SVG Version: 6.00 Build 0)  -->
<svg version="1.1" id="Calque_1" xmlns="http://www.w3.org/2000/svg" xmlns:xlink="http://www.w3.org/1999/xlink" x="0px" y="0px"
	 viewBox="0 0 1920 1080" style="enable-background:new 0 0 1920 1080;" xml:space="preserve">
<style type="text/css">
	.st0{fill:#FF0034;}
</style>
<g>
	<polygon class="st0" points="1140.25,630.12 1185.31,585.06 1185.31,540 1140.25,540 1185.31,494.94 1185.31,449.88 
		1140.25,449.88 1095.19,494.94 1095.19,540 1095.19,540 1140.25,540 1095.19,585.06 1095.19,630.13 1095.19,630.13 1140.25,630.13 
		1095.19,675.19 1095.19,720.25 1095.19,720.25 1140.25,720.25 1185.31,675.19 1185.31,630.12 	"/>
	<polygon class="st0" points="1140.25,449.88 1185.31,404.81 1185.31,359.75 1140.25,359.75 1095.19,404.81 1095.19,449.88 
		1095.19,449.88 	"/>
	<polygon class="st0" points="1050.13,675.19 1095.19,630.13 1095.19,585.06 1050.13,585.06 1095.19,540 1095.19,494.94 
		1050.12,494.94 1005.06,540 1005.06,585.06 1005.06,585.06 1050.12,585.06 1005.06,630.13 1005.06,675.19 1005.06,675.19 
		1050.12,675.19 1005.06,720.25 1005.06,765.31 1050.12,765.31 1095.19,720.25 1095.19,675.19 	"/>
	<polygon class="st0" points="1050.12,494.94 1095.19,449.88 1095.19,404.81 1050.12,404.81 1095.19,359.75 1095.19,314.69 
		1050.12,314.69 1005.06,359.75 1005.06,404.81 1050.12,404.81 1005.06,449.88 1005.06,494.94 1005.06,494.94 	"/>
	<polygon class="st0" points="1365.56,449.88 1320.5,449.88 1275.44,494.94 1275.44,540 1275.44,540 1320.5,540 1275.44,585.06 
		1275.44,630.13 1275.44,630.13 1320.5,630.13 1275.44,675.19 1275.44,720.25 1275.44,720.25 1320.5,720.25 1365.56,675.19 
		1365.56,630.12 1320.5,630.12 1365.56,585.06 1365.56,540 1320.5,540 1365.56,494.94 	"/>
	<polygon class="st0" points="1320.5,449.88 1365.56,404.81 1365.56,359.75 1320.5,359.75 1275.44,404.81 1275.44,449.88 
		1275.44,449.88 	"/>
	<polygon class="st0" points="1230.38,675.19 1275.44,630.13 1275.44,585.06 1230.38,585.06 1275.44,540 1275.44,494.94 
		1230.37,494.94 1185.31,540 1185.31,585.06 1185.31,585.06 1230.37,585.06 1185.31,630.13 1185.31,675.19 1185.31,675.19 
		1230.37,675.19 1185.31,720.25 1185.31,765.31 1230.38,765.31 1275.44,720.25 1275.44,675.19 	"/>
	<polygon class="st0" points="1185.31,449.88 1185.31,494.94 1185.31,494.94 1230.38,494.94 1275.44,449.88 1275.44,404.81 
		1230.38,404.81 1275.44,359.75 1275.44,314.69 1230.37,314.69 1185.31,359.75 1185.31,404.81 1230.37,404.81 	"/>
	<polygon class="st0" points="960,630.12 1005.06,585.06 1005.06,540 960,540 1005.06,494.94 1005.06,449.87 960,449.87 
		1005.06,404.82 1005.06,359.75 960,359.75 914.94,404.82 914.94,449.87 914.94,449.88 960,449.88 914.94,494.94 914.94,540 
		914.94,540 960,540 914.94,585.06 914.94,630.12 914.94,630.12 960,630.12 914.94,675.19 914.94,720.25 914.94,720.25 960,720.25 
		1005.06,675.19 1005.06,630.12 	"/>
	<polygon class="st0" points="869.88,675.19 914.94,630.12 914.94,585.06 869.88,585.06 914.94,540 914.94,494.94 869.87,494.94 
		824.81,540 824.81,585.06 869.87,585.06 824.81,630.12 824.81,675.19 824.81,675.19 869.87,675.19 824.81,720.25 824.81,765.31 
		869.88,765.31 914.94,720.25 914.94,675.19 	"/>
	<polygon class="st0" points="869.87,404.82 824.81,449.87 824.81,494.94 869.88,494.94 914.94,449.87 914.94,404.81 869.88,404.81 
		914.94,359.75 914.94,314.69 869.87,314.69 824.81,359.75 824.81,404.81 824.81,404.82 	"/>
	<polygon class="st0" points="779.75,630.12 824.81,585.06 824.81,540 779.75,540 824.81,494.94 824.81,449.88 779.75,449.88 
		734.69,494.94 734.69,540 734.69,540 779.75,540 734.69,585.06 734.69,630.13 734.69,630.13 779.75,630.13 734.69,675.19 
		734.69,720.25 734.69,720.25 779.75,720.25 824.81,675.19 824.81,630.12 	"/>
	<polygon class="st0" points="779.75,449.88 824.81,404.81 824.81,359.75 779.75,359.75 734.69,404.81 734.69,449.88 734.69,449.88 
			"/>
	<polygon class="st0" points="689.63,675.19 734.69,630.13 734.69,585.06 689.63,585.06 734.69,540 734.69,494.94 689.62,494.94 
		644.56,540 644.56,585.06 644.56,585.06 689.62,585.06 644.56,630.13 644.56,675.19 644.56,675.19 689.62,675.19 644.56,720.25 
		644.56,765.31 689.63,765.31 734.69,720.25 734.69,675.19 	"/>
	<polygon class="st0" points="689.63,494.94 734.69,449.88 734.69,404.81 689.63,404.81 734.69,359.75 734.69,314.69 689.62,314.69 
		644.56,359.75 644.56,404.81 644.56,404.82 689.62,404.82 644.56,449.88 644.56,494.94 644.56,494.94 	"/>
	<polygon class="st0" points="599.5,630.12 644.56,585.06 644.56,540 599.5,540 644.56,494.94 644.56,449.87 599.5,449.87 
		554.44,494.94 554.44,540 599.5,540 554.44,585.06 554.44,630.12 599.5,630.12 554.44,675.19 554.44,720.25 599.5,720.25 
		644.56,675.19 644.56,630.12 	"/>
	<polygon class="st0" points="599.5,359.75 554.44,404.81 554.44,449.87 599.5,449.87 644.56,404.81 644.56,359.75 	"/>
</g>
</svg>
