<?xml version="1.0" encoding="utf-8"?>
<!-- Generator: Adobe Illustrator 25.2.3, SVG Export Plug-In . SVG Version: 6.00 Build 0)  -->
<svg version="1.1" id="Calque_1" xmlns="http://www.w3.org/2000/svg" xmlns:xlink="http://www.w3.org/1999/xlink" x="0px" y="0px"
	 viewBox="0 0 1920 1080" style="enable-background:new 0 0 1920 1080;" xml:space="preserve">
<style type="text/css">
	.st0{fill:#FF0034;}
</style>
<g>
	<g>
		<polygon class="st0" points="554.44,337.22 554.44,382.28 599.5,382.28 644.56,337.22 644.56,292.16 599.5,292.16 		"/>
		<polygon class="st0" points="779.75,382.28 824.81,382.28 824.81,337.22 779.75,292.16 734.69,292.16 734.69,337.22 		"/>
		<polygon class="st0" points="914.94,337.22 914.94,382.28 960,382.28 1005.06,337.22 1005.06,292.16 960,292.16 		"/>
		<polygon class="st0" points="1140.25,382.28 1185.31,382.28 1185.31,337.22 1140.25,292.16 1095.19,292.16 1095.19,337.22 		"/>
		<polygon class="st0" points="1275.44,337.22 1275.44,382.28 1320.5,382.28 1365.56,337.22 1365.56,292.16 1320.5,292.16 		"/>
	</g>
	<g>
		<polygon class="st0" points="1275.44,472.41 1275.44,517.47 1230.38,517.47 1185.31,472.41 1185.31,427.34 1230.38,427.34 		"/>
		<polygon class="st0" points="1050.13,517.47 1005.06,517.47 1005.06,472.41 1050.12,427.34 1095.19,427.34 1095.19,472.41 		"/>
		<polygon class="st0" points="1410.63,517.47 1365.56,517.47 1365.56,472.41 1410.63,427.34 1455.69,427.34 1455.69,472.41 		"/>
		<polygon class="st0" points="914.94,472.41 914.94,517.47 869.88,517.47 824.81,472.41 824.81,427.34 869.88,427.34 		"/>
		<polygon class="st0" points="689.62,517.47 644.56,517.47 644.56,472.41 689.62,427.34 734.69,427.34 734.69,472.41 		"/>
		<polygon class="st0" points="554.44,472.41 554.44,517.47 509.37,517.47 464.31,472.41 464.31,427.34 509.37,427.34 		"/>
	</g>
	<g>
		<polygon class="st0" points="554.44,607.59 554.44,652.66 599.5,652.66 644.56,607.59 644.56,562.53 599.5,562.53 		"/>
		<polygon class="st0" points="779.75,652.66 824.81,652.66 824.81,607.59 779.75,562.53 734.69,562.53 734.69,607.59 		"/>
		<polygon class="st0" points="914.94,607.59 914.94,652.66 960,652.66 1005.06,607.59 1005.06,562.53 960,562.53 		"/>
		<polygon class="st0" points="1140.25,652.66 1185.31,652.66 1185.31,607.59 1140.25,562.53 1095.19,562.53 1095.19,607.59 		"/>
		<polygon class="st0" points="1275.44,607.59 1275.44,652.66 1320.5,652.66 1365.56,607.59 1365.56,562.53 1320.5,562.53 		"/>
	</g>
	<g>
		<polygon class="st0" points="1275.44,742.78 1275.44,787.84 1230.38,787.84 1185.31,742.78 1185.31,697.72 1230.38,697.72 		"/>
		<polygon class="st0" points="1050.13,787.84 1005.06,787.84 1005.06,742.78 1050.12,697.72 1095.19,697.72 1095.19,742.78 		"/>
		<polygon class="st0" points="1410.63,787.84 1365.56,787.84 1365.56,742.78 1410.63,697.72 1455.69,697.72 1455.69,742.78 		"/>
		<polygon class="st0" points="914.94,742.78 914.94,787.84 869.88,787.84 824.81,742.78 824.81,697.72 869.88,697.72 		"/>
		<polygon class="st0" points="689.62,787.84 644.56,787.84 644.56,742.78 689.62,697.72 734.69,697.72 734.69,742.78 		"/>
		<polygon class="st0" points="554.44,742.78 554.44,787.84 509.37,787.84 464.31,742.78 464.31,697.72 509.37,697.72 		"/>
	</g>
</g>
</svg>
