<svg width="24" height="24" viewBox="0 0 24 24" fill="none" xmlns="http://www.w3.org/2000/svg">
<path d="M17.8322 18.8109H6.165C5.02734 18.8109 4.10156 17.8852 4.10156 16.7475V14.3644C4.10156 13.9373 4.44797 13.5909 4.875 13.5909C5.30203 13.5909 5.64844 13.9373 5.64844 14.3644V16.7475C5.64844 17.0325 5.88 17.2641 6.165 17.2641H17.8322C18.1172 17.2641 18.3488 17.0325 18.3488 16.7475V14.3644C18.3488 13.9373 18.6952 13.5909 19.1222 13.5909C19.5492 13.5909 19.8956 13.9373 19.8956 14.3644V16.7475C19.8956 17.8852 18.9698 18.8109 17.8322 18.8109Z" fill="#161616"/>
<path d="M11.9991 16.0509C11.8051 16.0509 11.6138 15.9778 11.4676 15.8395L8.38647 12.9258C8.07616 12.6324 8.06257 12.143 8.356 11.8322C8.64944 11.5219 9.13882 11.5083 9.4496 11.8017L11.2262 13.4813V5.96252C11.2262 5.53549 11.5726 5.18909 11.9996 5.18909C12.4266 5.18909 12.773 5.53549 12.773 5.96252V15.2775C12.773 15.5864 12.5893 15.8658 12.3057 15.9877C12.2063 16.0303 12.1027 16.0509 11.9991 16.0509Z" fill="#161616"/>
<path d="M11.9976 16.0509C11.8945 16.0509 11.7904 16.0303 11.692 15.9877C11.4084 15.8653 11.2246 15.5864 11.2246 15.2775V5.96252C11.2246 5.53549 11.571 5.18909 11.998 5.18909C12.4251 5.18909 12.7715 5.53549 12.7715 5.96252V13.4817L14.5481 11.8017C14.8584 11.5083 15.3477 11.5219 15.6416 11.8322C15.9351 12.1425 15.9215 12.6319 15.6112 12.9258L12.5301 15.8395C12.3824 15.9778 12.1912 16.0509 11.9976 16.0509Z" fill="#161616"/>
</svg>
