<svg width="24" height="24" viewBox="0 0 24 24" fill="none" xmlns="http://www.w3.org/2000/svg">
<path d="M12 16.8348C11.573 16.8348 11.2266 16.4884 11.2266 16.0613V7.93884C11.2266 7.51181 11.573 7.16541 12 7.16541C12.427 7.16541 12.7734 7.51181 12.7734 7.93884V16.0613C12.7734 16.4884 12.427 16.8348 12 16.8348Z" fill="#161616"/>
<path d="M16.0619 12.7737H7.93945C7.51242 12.7737 7.16602 12.4273 7.16602 12.0002C7.16602 11.5732 7.51242 11.2268 7.93945 11.2268H16.0619C16.489 11.2268 16.8354 11.5732 16.8354 12.0002C16.8354 12.4273 16.489 12.7737 16.0619 12.7737Z" fill="#161616"/>
<path d="M11.9999 19.9238C7.6307 19.9238 4.07617 16.3693 4.07617 12C4.07617 7.63083 7.6307 4.07629 11.9999 4.07629C16.3691 4.07629 19.9237 7.63083 19.9237 12C19.9237 16.3693 16.3691 19.9238 11.9999 19.9238ZM11.9999 5.62317C8.48383 5.62317 5.62305 8.48395 5.62305 12C5.62305 15.5161 8.48383 18.3769 11.9999 18.3769C15.516 18.3769 18.3768 15.5161 18.3768 12C18.3768 8.48395 15.516 5.62317 11.9999 5.62317Z" fill="#161616"/>
</svg>
