<svg width="24" height="24" viewBox="0 0 24 24" fill="none" xmlns="http://www.w3.org/2000/svg">
<path d="M21.1757 23.1252H2.8243C1.81853 23.1252 1 22.3262 1 21.3436V5.65652C1 4.67425 1.81853 3.87524 2.8243 3.87524H9.37779C9.73529 3.87524 10.0249 4.15804 10.0249 4.50718C10.0249 4.85633 9.73529 5.13912 9.37779 5.13912H2.8243C2.53191 5.13951 2.29412 5.37136 2.29412 5.65652V21.3436C2.29412 21.6291 2.53191 21.8614 2.8243 21.8614H21.1757C21.4681 21.8614 21.7059 21.6291 21.7059 21.3436V9.78662C21.7059 9.43748 21.9954 9.15469 22.3529 9.15469C22.7104 9.15469 23 9.43748 23 9.78662V21.344C23 22.3262 22.1815 23.1252 21.1757 23.1252Z" fill="#161616"/>
<path d="M22.352 17.8462C21.9945 17.8462 21.7049 17.5634 21.7049 17.2143V9.78667C21.7049 9.50112 21.4671 9.26888 21.1747 9.26888H11.9986C11.6411 9.26888 11.3516 8.98609 11.3516 8.63694C11.3516 8.2878 11.6411 8.005 11.9986 8.005H21.1747C22.1805 8.005 22.999 8.80441 22.999 9.78667V17.2147C22.999 17.5634 22.7095 17.8462 22.352 17.8462Z" fill="#161616"/>
<path d="M20.3791 9.26887C20.0216 9.26887 19.732 8.98608 19.732 8.63693V6.65423C19.732 6.36867 19.4942 6.13643 19.2018 6.13643H10.0103C9.65284 6.13643 9.36328 5.85364 9.36328 5.5045C9.36328 5.15535 9.65284 4.87256 10.0103 4.87256H19.2018C20.2076 4.87256 21.0261 5.67196 21.0261 6.65423V8.63693C21.0261 8.98568 20.7361 9.26887 20.3791 9.26887Z" fill="#161616"/>
<path d="M11.9999 9.26889C11.7836 9.26889 11.5721 9.16265 11.4495 8.9699L8.82771 4.84019C8.63926 4.54358 8.73308 4.15415 9.0368 3.97009C9.34051 3.78604 9.73926 3.87767 9.92772 4.17429L12.5495 8.304C12.738 8.60062 12.6442 8.99005 12.3405 9.1741C12.2341 9.23808 12.1164 9.26889 11.9999 9.26889Z" fill="#161616"/>
</svg>
