<svg width="24" height="24" viewBox="0 0 24 24" fill="none" xmlns="http://www.w3.org/2000/svg">
<path d="M12 24C8.79478 24 5.7813 22.7517 3.51478 20.4852C1.24826 18.2187 0 15.2052 0 12C0 8.79478 1.24826 5.7813 3.51478 3.51478C5.7813 1.24826 8.79478 0 12 0C15.2052 0 18.2187 1.24826 20.4852 3.51478C22.7517 5.7813 24 8.79478 24 12C24 15.2052 22.7517 18.2187 20.4852 20.4852C18.2187 22.7517 15.2052 24 12 24ZM12 1.73913C9.25913 1.73913 6.68261 2.80652 4.74435 4.74435C2.80652 6.68261 1.73913 9.25913 1.73913 12C1.73913 14.7409 2.80652 17.3174 4.74435 19.2557C6.68261 21.1935 9.25913 22.2609 12 22.2609C14.7409 22.2609 17.3174 21.1935 19.2557 19.2557C21.1935 17.3174 22.2609 14.7409 22.2609 12C22.2609 9.25913 21.1935 6.68261 19.2557 4.74435C17.3174 2.80652 14.7409 1.73913 12 1.73913Z" fill="#161616"/>
<path d="M3.56847 20.1347C3.37282 20.1347 3.17629 20.069 3.01412 19.9347C2.64412 19.6282 2.59281 19.0803 2.89934 18.7103C5.15369 15.9886 8.47152 14.4277 12.002 14.4277C15.532 14.4277 18.8498 15.9886 21.1037 18.7103C21.4102 19.0803 21.3585 19.6282 20.9889 19.9347C20.6189 20.2408 20.0707 20.1895 19.7646 19.8199C17.842 17.4986 15.0124 16.1673 12.002 16.1673C8.99109 16.1673 6.16152 17.4986 4.2389 19.8199C4.06673 20.0273 3.81847 20.1347 3.56847 20.1347Z" fill="#161616"/>
<path d="M11.9987 13.1427C9.79391 13.1427 8 11.3487 8 9.14396C8 6.93918 9.79391 5.14526 11.9987 5.14526C14.2035 5.14526 15.9974 6.93918 15.9974 9.14396C15.9974 11.3487 14.2035 13.1427 11.9987 13.1427ZM11.9987 6.88439C10.753 6.88439 9.73913 7.89787 9.73913 9.14396C9.73913 10.39 10.7526 11.4035 11.9987 11.4035C13.2448 11.4035 14.2583 10.39 14.2583 9.14396C14.2583 7.89787 13.2443 6.88439 11.9987 6.88439Z" fill="#161616"/>
</svg>
