<svg width="24" height="24" viewBox="0 0 24 24" fill="none" xmlns="http://www.w3.org/2000/svg">
<path d="M15.7366 19.8708H6.42062C5.15688 19.8708 4.12891 18.8428 4.12891 17.5791V8.26644C4.12891 7.00081 5.15688 5.97144 6.42062 5.97144H9.67656C10.1036 5.97144 10.45 6.31784 10.45 6.74487C10.45 7.1719 10.1036 7.51831 9.67656 7.51831H6.42062C6.01 7.51831 5.67578 7.85394 5.67578 8.26644V17.5791C5.67578 17.9897 6.01 18.3239 6.42062 18.3239H15.7366C16.1472 18.3239 16.4814 17.9897 16.4814 17.5791V14.3264C16.4814 13.8994 16.8278 13.553 17.2548 13.553C17.6819 13.553 18.0283 13.8994 18.0283 14.3264V17.5791C18.0283 18.8428 17.0003 19.8708 15.7366 19.8708Z" fill="#161616"/>
<path d="M11.0784 13.6945C10.8745 13.6945 10.6776 13.6139 10.5314 13.4681C10.3645 13.3013 10.283 13.0678 10.3097 12.8334L10.6031 10.2642C10.6228 10.0903 10.7011 9.9286 10.8248 9.80532L15.9112 4.71892C16.3284 4.30174 16.9228 4.08939 17.5416 4.1358C18.1256 4.17986 18.6872 4.4433 19.1217 4.8783C19.5562 5.31283 19.8201 5.87439 19.8642 6.45845C19.9106 7.0772 19.6983 7.67157 19.2811 8.08876L14.1947 13.1747C14.0709 13.2984 13.9092 13.3763 13.7358 13.3964L11.1666 13.6898C11.137 13.6931 11.1075 13.6945 11.0784 13.6945ZM12.1097 10.7081L11.9573 12.0427L13.2919 11.8903L18.187 6.9947C18.3216 6.86017 18.3291 6.67361 18.3216 6.57423C18.3056 6.36189 18.1987 6.14251 18.0281 5.97189C17.8575 5.80126 17.6381 5.69439 17.4258 5.67845C17.3264 5.67095 17.1398 5.67845 17.0053 5.81298L12.1097 10.7081Z" fill="#161616"/>
<path d="M17.4711 9.57895C17.2733 9.57895 17.075 9.50348 16.9241 9.35254L14.6483 7.07677C14.3464 6.77489 14.3464 6.28505 14.6483 5.98317C14.9502 5.6813 15.44 5.68083 15.7419 5.98317L18.0177 8.25895C18.3195 8.56082 18.3195 9.05067 18.0177 9.35254C17.8667 9.50348 17.6689 9.57895 17.4711 9.57895Z" fill="#161616"/>
</svg>
