<svg width="24" height="24" viewBox="0 0 24 24" fill="none" xmlns="http://www.w3.org/2000/svg">
<path d="M17.379 10.9641C17.3706 10.9641 17.3622 10.9641 17.3539 10.9637C17.1227 10.9551 16.91 10.8307 16.7852 10.6307L15.2451 8.16709C15.0342 7.82999 15.129 7.38083 15.4573 7.16396C15.7851 6.9471 16.2218 7.04464 16.4327 7.38219L17.4227 8.96605L19.685 5.85686C19.9184 5.53565 20.3609 5.47031 20.6732 5.71032C20.9856 5.95032 21.0491 6.40538 20.8153 6.7266L17.9437 10.6733C17.8105 10.8571 17.6009 10.9641 17.379 10.9641Z" fill="#161616"/>
<path d="M18.0432 16.2229C17.9294 16.2229 17.8142 16.1948 17.7075 16.1349C15.1183 14.6912 13.4789 12.9672 12.6954 10.8634C12.0058 9.01232 12.0632 7.16305 12.1183 5.37457C12.1333 4.89411 12.147 4.43996 12.147 3.9849C12.147 3.69317 12.3168 3.43003 12.5776 3.3166L17.7679 1.05764C18.1266 0.90157 18.5413 1.07398 18.693 1.44329C18.8448 1.81259 18.6772 2.23862 18.318 2.39469L13.5543 4.46809C13.5486 4.78794 13.5389 5.1078 13.5292 5.42085C13.4242 8.82494 13.3245 12.0403 18.3803 14.8587C18.723 15.0497 18.8501 15.4902 18.6644 15.8427C18.5364 16.0855 18.2938 16.2229 18.0432 16.2229Z" fill="#161616"/>
<path d="M18.0426 16.2229C17.792 16.2229 17.5493 16.0855 17.4214 15.8427C17.2357 15.4902 17.3627 15.0497 17.7055 14.8587C22.7608 12.0403 22.6616 8.82494 22.5566 5.42085C22.5469 5.1078 22.5372 4.78794 22.5314 4.46809L17.7677 2.39469C17.4086 2.23862 17.2409 1.81259 17.3927 1.44329C17.5445 1.07398 17.9587 0.90157 18.3178 1.05764L23.5077 3.3166C23.7689 3.43003 23.9383 3.69362 23.9383 3.9849C23.9383 4.43996 23.9524 4.89365 23.967 5.37457C24.0221 7.16305 24.0795 9.01232 23.3899 10.8634C22.6064 12.9667 20.9671 14.6912 18.3778 16.1349C18.2711 16.1943 18.1559 16.2229 18.0426 16.2229Z" fill="#161616"/>
<path d="M22.2159 22.3334H1.78364C0.800279 22.3334 0 21.5104 0 20.4986V7.40034C0 6.3886 0.800279 5.56604 1.78364 5.56604H9.84908C10.2391 5.56604 10.555 5.89089 10.555 6.29196C10.555 6.69303 10.2391 7.01788 9.84908 7.01788H1.78364C1.5785 7.01788 1.41174 7.18937 1.41174 7.40034V20.4986C1.41174 20.7096 1.5785 20.8811 1.78364 20.8811H22.2155C22.4206 20.8811 22.5874 20.7096 22.5874 20.4986V15.4966C22.5874 15.0955 22.9033 14.7707 23.2932 14.7707C23.6832 14.7707 23.9991 15.0955 23.9991 15.4966V20.4986C23.9996 21.5104 23.1993 22.3334 22.2159 22.3334Z" fill="#161616"/>
<path d="M6.78867 16.2225H3.80548C3.41549 16.2225 3.09961 15.8977 3.09961 15.4966C3.09961 15.0956 3.41549 14.7708 3.80548 14.7708H6.78867C7.17866 14.7708 7.49454 15.0956 7.49454 15.4966C7.49454 15.8977 7.17822 16.2225 6.78867 16.2225Z" fill="#161616"/>
<path d="M9.84952 11.613H0.705869C0.315877 11.613 0 11.2881 0 10.887C0 10.486 0.315877 10.1611 0.705869 10.1611H9.84952C10.2395 10.1611 10.5554 10.486 10.5554 10.887C10.5554 11.2881 10.2391 11.613 9.84952 11.613Z" fill="#161616"/>
</svg>
