<svg width="24" height="24" viewBox="0 0 24 24" fill="none" xmlns="http://www.w3.org/2000/svg">
<path d="M11.9981 19.9084C16.3658 19.9084 19.9065 16.3677 19.9065 12.0001C19.9065 7.63247 16.3658 4.0918 11.9981 4.0918C7.63051 4.0918 4.08984 7.63247 4.08984 12.0001C4.08984 16.3677 7.63051 19.9084 11.9981 19.9084Z" fill="#161616"/>
<path d="M9.01877 13.4925C8.90368 13.4925 8.78859 13.4504 8.69783 13.3653C8.50976 13.188 8.50087 12.8918 8.67818 12.7038L11.6569 9.54353C11.8342 9.35547 12.1303 9.34658 12.3184 9.52389C12.5065 9.70119 12.5154 9.99733 12.3381 10.1854L9.35935 13.3456C9.26719 13.4429 9.14321 13.4925 9.01877 13.4925Z" fill="white"/>
<path d="M14.9741 13.4925C14.8496 13.4925 14.7256 13.4434 14.6335 13.3456L11.6547 10.1854C11.4774 9.99733 11.4863 9.70119 11.6744 9.52389C11.8625 9.34658 12.1586 9.35547 12.3359 9.54353L15.3146 12.7038C15.492 12.8918 15.4831 13.188 15.295 13.3653C15.2042 13.4499 15.0891 13.4925 14.9741 13.4925Z" fill="white"/>
</svg>
