<svg width="24" height="24" viewBox="0 0 24 24" fill="none" xmlns="http://www.w3.org/2000/svg">
<path d="M17.1647 17.94C16.9669 17.94 16.7686 17.8645 16.6177 17.7136L6.285 7.38043C5.98313 7.07855 5.98313 6.58871 6.285 6.28683C6.58687 5.98496 7.07672 5.98496 7.37859 6.28683L17.7117 16.62C18.0136 16.9218 18.0136 17.4117 17.7117 17.7136C17.5603 17.8645 17.3625 17.94 17.1647 17.94Z" fill="#161616"/>
<path d="M6.83399 17.94C6.63617 17.94 6.43789 17.8645 6.28695 17.7136C5.98508 17.4117 5.98508 16.9218 6.28695 16.62L16.6201 6.28683C16.922 5.98496 17.4118 5.98496 17.7137 6.28683C18.0156 6.58871 18.0156 7.07855 17.7137 7.38043L7.38102 17.7131C7.23008 17.8645 7.03227 17.94 6.83399 17.94Z" fill="#161616"/>
</svg>
