<svg width="24" height="24" viewBox="0 0 24 24" fill="none" xmlns="http://www.w3.org/2000/svg">
<path d="M12 24C8.79478 24 5.7813 22.7517 3.51478 20.4852C1.24826 18.2187 0 15.2052 0 12C0 8.79478 1.24826 5.7813 3.51478 3.51478C5.7813 1.24826 8.79478 0 12 0C15.2052 0 18.2187 1.24826 20.4852 3.51478C22.7517 5.7813 24 8.79478 24 12C24 15.2052 22.7517 18.2187 20.4852 20.4852C18.2187 22.7517 15.2052 24 12 24ZM12 1.73913C9.25913 1.73913 6.68261 2.80652 4.74435 4.74435C2.80652 6.68261 1.73913 9.25913 1.73913 12C1.73913 14.7409 2.80652 17.3174 4.74435 19.2557C6.68261 21.1935 9.25913 22.2609 12 22.2609C14.7409 22.2609 17.3174 21.1935 19.2557 19.2557C21.1935 17.3174 22.2609 14.7409 22.2609 12C22.2609 9.25913 21.1935 6.68261 19.2557 4.74435C17.3174 2.80652 14.7409 1.73913 12 1.73913Z" fill="#161616"/>
<path d="M10.6803 16.6923C10.4577 16.6923 10.2429 16.6071 10.0812 16.4527L6.21163 12.7718C5.8638 12.441 5.84989 11.8905 6.18076 11.5423C6.51163 11.1944 7.06206 11.1805 7.41032 11.5114L10.6142 14.5592L16.5312 7.61357C16.8425 7.24792 17.3912 7.20401 17.7568 7.51575C18.1225 7.82705 18.1664 8.37618 17.8547 8.7414L11.3421 16.3866C11.1873 16.5684 10.9642 16.6784 10.7255 16.691C10.7108 16.6918 10.6955 16.6923 10.6803 16.6923Z" fill="#161616"/>
</svg>
