<svg width="24" height="24" viewBox="0 0 24 24" fill="none" xmlns="http://www.w3.org/2000/svg">
<path d="M17.1241 12.4978H6.92563C6.43472 12.4978 6.03711 12.1087 6.03711 11.6283V5.28478C6.03711 2.37087 8.45923 0 11.4367 0H12.6126C15.5905 0 18.0127 2.37087 18.0127 5.28478V11.6283C18.0127 12.1083 17.615 12.4978 17.1241 12.4978ZM7.81416 10.7587H16.2356V5.28478C16.2356 3.32957 14.6105 1.73913 12.6126 1.73913H11.4367C9.43883 1.73913 7.81372 3.32957 7.81372 5.28478V10.7587H7.81416Z" fill="#161616"/>
<path d="M17.1241 12.4978H6.92563C6.43472 12.4978 6.03711 12.1087 6.03711 11.6283V5.28478C6.03711 2.37087 8.45923 0 11.4367 0H12.6126C15.5905 0 18.0127 2.37087 18.0127 5.28478V11.6283C18.0127 12.1083 17.615 12.4978 17.1241 12.4978ZM7.81416 10.7587H16.2356V5.28478C16.2356 3.32957 14.6105 1.73913 12.6126 1.73913H11.4367C9.43883 1.73913 7.81372 3.32957 7.81372 5.28478V10.7587H7.81416Z" fill="#161616"/>
<path d="M22.0217 24H1.98056C1.73221 24 1.49542 23.8982 1.32705 23.7195C1.15867 23.5408 1.07471 23.3013 1.0947 23.0591L2.32797 8.32824C2.36573 7.87693 2.75091 7.52954 3.21339 7.52954H20.7884C21.2509 7.52954 21.6361 7.87693 21.6738 8.32824L22.9071 23.0591C22.9275 23.3013 22.8431 23.5408 22.6748 23.7195C22.5068 23.8982 22.27 24 22.0217 24ZM2.94505 22.2608H21.0576L19.9701 9.26911H4.03216L2.94505 22.2608Z" fill="#161616"/>
</svg>
