<svg width="24" height="24" viewBox="0 0 24 24" fill="none" xmlns="http://www.w3.org/2000/svg">
<path d="M12.0008 19.9735C16.4044 19.9735 19.9742 16.4037 19.9742 12C19.9742 7.59644 16.4044 4.02661 12.0008 4.02661C7.59717 4.02661 4.02734 7.59644 4.02734 12C4.02734 16.4037 7.59717 19.9735 12.0008 19.9735Z" fill="#161616"/>
<path d="M11.7746 9.36196C12.3869 9.36196 12.8832 8.86563 12.8832 8.25337C12.8832 7.64111 12.3869 7.14478 11.7746 7.14478C11.1624 7.14478 10.666 7.64111 10.666 8.25337C10.666 8.86563 11.1624 9.36196 11.7746 9.36196Z" fill="white"/>
<path d="M12.7417 10.2303H9.85938V11.7083H12.7417V10.2303Z" fill="white"/>
<path d="M14.6255 15.3776H9.37695V16.8555H14.6255V15.3776Z" fill="white"/>
<path d="M12.7422 15.4786L12.7422 10.23H11.2642V15.4786H12.7422Z" fill="white"/>
<path d="M12.0019 19.9238C7.63266 19.9238 4.07812 16.3693 4.07812 12C4.07812 7.63083 7.63266 4.07629 12.0019 4.07629C16.3711 4.07629 19.9256 7.63083 19.9256 12C19.9256 16.3693 16.3711 19.9238 12.0019 19.9238ZM12.0019 5.62317C8.48578 5.62317 5.625 8.48395 5.625 12C5.625 15.5161 8.48578 18.3769 12.0019 18.3769C15.518 18.3769 18.3787 15.5161 18.3787 12C18.3787 8.48395 15.518 5.62317 12.0019 5.62317Z" fill="#161616"/>
</svg>
