<svg width="24" height="24" viewBox="0 0 24 24" fill="none" xmlns="http://www.w3.org/2000/svg">
<path d="M13.478 18.7745H4.4712C3.10848 18.7745 2 17.6741 2 16.3212C2 15.6683 2.25746 15.0528 2.72498 14.5882C3.19251 14.124 3.81246 13.8684 4.4712 13.8684H12.3168V15.1518H4.4712C4.15826 15.1518 3.86309 15.2742 3.63956 15.4961C3.41604 15.718 3.29269 16.0111 3.29269 16.3212C3.29269 16.9666 3.82162 17.4912 4.4712 17.4912H13.478V18.7745Z" fill="#161616"/>
<path d="M19.4319 18.7743H17.125V17.491H19.4319C19.7443 17.491 20.04 17.3685 20.263 17.1466C20.4865 16.9247 20.6099 16.6312 20.6099 16.3205C20.6099 15.6756 20.0815 15.151 19.4319 15.151H17.125V13.8677H19.4319C20.7941 13.8677 21.9026 14.9681 21.9026 16.3205C21.9026 16.9739 21.6451 17.5894 21.1776 18.0541C20.7095 18.5187 20.0896 18.7743 19.4319 18.7743Z" fill="#161616"/>
<path d="M19.4341 7.90613H4.47119C3.10848 7.90613 2 6.80566 2 5.45333C2 4.10101 3.10848 3 4.47119 3H19.4341C20.7968 3 21.9053 4.10047 21.9053 5.45333C21.9053 6.8062 20.7968 7.90613 19.4341 7.90613ZM4.47119 4.28335C3.82162 4.28335 3.29269 4.80792 3.29269 5.45333C3.29269 6.09875 3.82108 6.62332 4.47119 6.62332H19.4341C20.0837 6.62332 20.6126 6.09875 20.6126 5.45333C20.6126 4.80792 20.0837 4.28335 19.4341 4.28335H4.47119Z" fill="#161616"/>
<path d="M19.4341 11.529H4.47119C3.10848 11.529 2 10.4285 2 9.07565C2 7.72279 3.10848 6.62231 4.47119 6.62231H19.4341C20.7968 6.62231 21.9053 7.72279 21.9053 9.07565C21.9053 10.4285 20.7968 11.529 19.4341 11.529ZM4.47119 7.9062C3.82162 7.9062 3.29269 8.43077 3.29269 9.07618C3.29269 9.7216 3.82108 10.2462 4.47119 10.2462H19.4341C20.0837 10.2462 20.6126 9.7216 20.6126 9.07618C20.6126 8.43077 20.0842 7.9062 19.4341 7.9062H4.47119Z" fill="#161616"/>
<path d="M19.4336 15.1513H17.1267V13.868H19.4336C19.746 13.868 20.0412 13.7455 20.2647 13.5236C20.4883 13.3017 20.6116 13.0087 20.6116 12.6985C20.6116 12.0537 20.0832 11.5286 19.4336 11.5286H4.47077C4.35228 11.5286 4.23486 11.5462 4.12175 11.5815C4.1002 11.5879 4.08351 11.5938 4.06681 11.5997C4.04957 11.6061 4.03234 11.613 4.0151 11.62C3.99787 11.6275 3.98063 11.635 3.96286 11.6435C3.9467 11.6515 3.93 11.6596 3.91438 11.6681C3.89661 11.6783 3.87937 11.6879 3.86213 11.6981C3.85244 11.7039 3.84328 11.7098 3.83359 11.7162L3.81474 11.7285C3.80719 11.7339 3.79911 11.7398 3.79104 11.7451C3.78349 11.7499 3.77595 11.7553 3.76841 11.7612C3.75279 11.7729 3.73879 11.7836 3.72479 11.7954C3.71078 11.8071 3.69678 11.8184 3.68385 11.8307C3.6817 11.8328 3.67954 11.835 3.67739 11.8366C3.66392 11.8483 3.65099 11.8606 3.63861 11.8735C3.40269 12.1077 3.27989 12.4173 3.29281 12.7456C3.29281 12.7483 3.29281 12.7504 3.29281 12.7531C3.29281 12.76 3.29335 12.767 3.29389 12.7739C3.29443 12.7804 3.29497 12.7868 3.29551 12.7937L3.29658 12.8087C3.29712 12.813 3.29766 12.8162 3.29766 12.8205C3.30305 12.8734 3.3122 12.9269 3.32567 12.9798C3.32675 12.983 3.32728 12.9862 3.32782 12.99C3.32998 12.9964 3.33159 13.0039 3.33321 13.0098C3.33913 13.0317 3.34667 13.0541 3.35368 13.0761C3.5158 13.5488 3.96447 13.8691 4.46916 13.8691H12.3147V15.1524H4.47077C3.41239 15.1524 2.47142 14.4824 2.13047 13.4851C2.11323 13.4338 2.10031 13.3926 2.08953 13.3541C2.08307 13.3317 2.07661 13.3087 2.07176 13.2867C2.04429 13.1771 2.0249 13.0648 2.01305 12.9536C2.0109 12.9365 2.00982 12.9194 2.0082 12.9028C2.00766 12.898 2.00713 12.8932 2.00713 12.8884C2.00659 12.8798 2.00605 12.8718 2.00551 12.8632C2.00389 12.8397 2.00282 12.8167 2.00174 12.7943C1.97589 12.1152 2.23927 11.4499 2.72511 10.9676C2.75258 10.9404 2.78112 10.9131 2.81021 10.8874C2.83876 10.8612 2.86784 10.8361 2.898 10.8115C2.92924 10.7853 2.96048 10.7612 2.99388 10.7366C3.01596 10.72 3.03858 10.704 3.06228 10.688C3.08113 10.6746 3.10052 10.6618 3.11991 10.6495L3.12638 10.6452C3.14685 10.6318 3.16624 10.6195 3.18617 10.6072C3.1894 10.6051 3.19209 10.6035 3.19532 10.6019C3.22548 10.5842 3.25565 10.5671 3.28635 10.5495C3.28904 10.5479 3.29227 10.5463 3.29497 10.5447C3.32836 10.5265 3.36283 10.5094 3.3973 10.4928C3.39892 10.4922 3.40054 10.4912 3.40215 10.4906C3.43555 10.4746 3.46894 10.4602 3.50234 10.4452C3.50718 10.4431 3.51149 10.4415 3.51634 10.4393C3.55189 10.4249 3.58744 10.4104 3.62352 10.3976C3.66338 10.3832 3.7027 10.3698 3.7431 10.3575C3.97632 10.2853 4.22301 10.2484 4.47185 10.2484H19.4347C20.7969 10.2484 21.9054 11.3489 21.9054 12.7017C21.9054 13.3547 21.6479 13.9701 21.1804 14.4343C20.7118 14.8957 20.0918 15.1513 19.4336 15.1513Z" fill="#161616"/>
<path d="M15.3016 22C14.644 22 14.024 21.7444 13.556 21.2797C13.0884 20.8156 12.831 20.1996 12.831 19.5461V15.6624C12.831 15.3806 12.5999 15.1512 12.3161 15.1512H4.50605C3.19613 15.1512 2.09842 14.1518 2.00631 12.8765C1.95514 12.1664 2.21691 11.4696 2.72537 10.9654C3.19289 10.5012 3.81285 10.2456 4.47158 10.2456H13.4773C15.8456 10.2456 17.7728 12.1589 17.7728 14.5101V19.5467C17.7728 20.8995 16.6643 22 15.3016 22ZM4.4705 11.529C4.15756 11.529 3.8624 11.6514 3.63887 11.8733C3.39595 12.1145 3.27099 12.4465 3.29523 12.785C3.3394 13.3925 3.87102 13.8684 4.50605 13.8684H12.3166C13.313 13.8684 14.1242 14.6737 14.1242 15.6629V19.5467C14.1242 19.8574 14.2476 20.1504 14.4711 20.3728C14.6946 20.5947 14.9898 20.7172 15.3022 20.7172C15.9517 20.7172 16.4807 20.1921 16.4807 19.5472V14.5106C16.4807 12.8668 15.1336 11.5295 13.4779 11.5295H4.4705V11.529Z" fill="#161616"/>
</svg>
