<svg width="24" height="24" viewBox="0 0 24 24" fill="none" xmlns="http://www.w3.org/2000/svg">
<path d="M0.992441 18.4909C0.852181 18.4909 0.711036 18.4609 0.576527 18.3991C0.220788 18.2363 0 17.8927 0 17.5027V2.87763C0 1.29081 1.29464 0 2.88618 0H16.5047C18.0962 0 19.3909 1.29081 19.3909 2.87763V12.1308C19.3909 13.7176 18.0962 15.0084 16.5047 15.0084H5.42237L1.63401 18.2509C1.4495 18.4092 1.22296 18.4909 0.992441 18.4909ZM2.88618 1.41168C2.07559 1.41168 1.41588 2.06944 1.41588 2.87763V16.5771L4.69894 13.767C4.82726 13.6572 4.99097 13.5967 5.15999 13.5967H16.5043C17.3148 13.5967 17.9746 12.939 17.9746 12.1308V2.87763C17.9746 2.06944 17.3148 1.41168 16.5043 1.41168H2.88618Z" fill="#161616"/>
<path d="M11.0713 9.16047H5.04192C4.65079 9.16047 4.33398 8.8446 4.33398 8.45462C4.33398 8.06464 4.65079 7.74878 5.04192 7.74878H11.0713C11.4625 7.74878 11.7793 8.06464 11.7793 8.45462C11.7793 8.8446 11.4625 9.16047 11.0713 9.16047Z" fill="#161616"/>
<path d="M14.3053 6.17389H5.04192C4.65079 6.17389 4.33398 5.85803 4.33398 5.46805C4.33398 5.07807 4.65079 4.76221 5.04192 4.76221H14.3053C14.6964 4.76221 15.0132 5.07807 15.0132 5.46805C15.0132 5.85803 14.696 6.17389 14.3053 6.17389Z" fill="#161616"/>
<path d="M23.0078 24C22.7773 24 22.5507 23.9184 22.3662 23.7605L18.5779 20.518H7.49555C5.90402 20.518 4.60938 19.2272 4.60938 17.6404C4.60938 17.2504 4.92618 16.9345 5.31731 16.9345C5.70845 16.9345 6.02525 17.2504 6.02525 17.6404C6.02525 18.4486 6.68496 19.1063 7.49555 19.1063H18.8403C19.0093 19.1063 19.173 19.1668 19.3013 19.2766L22.5844 22.0868V8.38679C22.5844 7.5786 21.9247 6.92084 21.1141 6.92084C20.7229 6.92084 20.4061 6.60498 20.4061 6.215C20.4061 5.82502 20.7229 5.50916 21.1141 5.50916C22.7056 5.50916 24.0003 6.79997 24.0003 8.38679V23.0119C24.0003 23.4018 23.7795 23.7455 23.4237 23.9083C23.2897 23.9696 23.1481 24 23.0078 24Z" fill="#161616"/>
</svg>
