<svg width="24" height="24" viewBox="0 0 24 24" fill="none" xmlns="http://www.w3.org/2000/svg">
<path d="M17.2261 19.9167C15.7533 19.9167 14.5547 18.7185 14.5547 17.2453C14.5547 15.7724 15.7528 14.5739 17.2261 14.5739C18.6989 14.5739 19.8975 15.772 19.8975 17.2453C19.897 18.7185 18.6989 19.9167 17.2261 19.9167ZM17.2261 16.1212C16.6059 16.1212 16.1016 16.6256 16.1016 17.2457C16.1016 17.8659 16.6059 18.3703 17.2261 18.3703C17.8462 18.3703 18.3506 17.8659 18.3506 17.2457C18.3506 16.6256 17.8458 16.1212 17.2261 16.1212Z" fill="#161616"/>
<path d="M6.77492 14.6714C5.30211 14.6714 4.10352 13.4733 4.10352 12C4.10352 10.5267 5.30164 9.32861 6.77492 9.32861C8.2482 9.32861 9.44632 10.5272 9.44632 12C9.44632 13.4728 8.2482 14.6714 6.77492 14.6714ZM6.77492 10.8755C6.15476 10.8755 5.65039 11.3799 5.65039 12C5.65039 12.6202 6.15476 13.1246 6.77492 13.1246C7.39507 13.1246 7.89945 12.6202 7.89945 12C7.89945 11.3799 7.39507 10.8755 6.77492 10.8755Z" fill="#161616"/>
<path d="M15.5294 17.1666C15.4127 17.1666 15.2946 17.1403 15.1835 17.0845L8.12224 13.5441C7.74021 13.3528 7.58599 12.8878 7.77771 12.5058C7.96896 12.1238 8.43396 11.9695 8.81599 12.1613L15.8772 15.7017C16.2593 15.893 16.4135 16.358 16.2218 16.74C16.0858 17.0105 15.813 17.1666 15.5294 17.1666Z" fill="#161616"/>
<path d="M17.2261 9.42557C15.7533 9.42557 14.5547 8.22745 14.5547 6.75417C14.5547 5.28089 15.7528 4.08276 17.2261 4.08276C18.6989 4.08276 19.8975 5.28089 19.8975 6.75417C19.8975 8.22745 18.6989 9.42557 17.2261 9.42557ZM17.2261 5.63011C16.6059 5.63011 16.1016 6.13448 16.1016 6.75464C16.1016 7.37479 16.6059 7.87916 17.2261 7.87916C17.8462 7.87916 18.3506 7.37479 18.3506 6.75464C18.3506 6.13448 17.8458 5.63011 17.2261 5.63011Z" fill="#161616"/>
<path d="M8.46959 11.924C8.18646 11.924 7.91365 11.7679 7.77771 11.4974C7.58599 11.1159 7.74021 10.6509 8.12224 10.4592L15.1835 6.91541C15.5655 6.72369 16.0301 6.87791 16.2218 7.25994C16.4135 7.6415 16.2593 8.1065 15.8772 8.29822L8.81599 11.842C8.70443 11.8977 8.58584 11.924 8.46959 11.924Z" fill="#161616"/>
</svg>
