<svg width="24" height="24" viewBox="0 0 24 24" fill="none" xmlns="http://www.w3.org/2000/svg">
<g clip-path="url(#clip0)">
<path d="M11.9989 7.53125C11.8849 7.53125 11.771 7.50499 11.6672 7.45247L6.5477 4.86471C6.31536 4.74739 6.16992 4.51699 6.16992 4.26584C6.16992 4.01468 6.31536 3.78428 6.5477 3.66696L11.6672 1.07878C11.8747 0.973741 12.1235 0.973741 12.331 1.07878L17.4501 3.66696C17.6824 3.78428 17.8278 4.01468 17.8278 4.26584C17.8278 4.51699 17.6824 4.74739 17.4501 4.86471L12.331 7.45247C12.2268 7.50499 12.1128 7.53125 11.9989 7.53125ZM8.39624 4.26584L11.9989 6.08701L15.6015 4.26584L11.9989 2.44466L8.39624 4.26584Z" fill="#161616"/>
<path d="M12.0009 13.0841C11.8741 13.0841 11.7477 13.0515 11.6351 12.9871C11.4218 12.8647 11.291 12.6441 11.291 12.4065V6.85359C11.291 6.60244 11.4365 6.37204 11.6688 6.25472L16.7879 3.66696C17.0078 3.55557 17.2725 3.56277 17.4858 3.68517C17.6991 3.80757 17.8294 4.02823 17.8294 4.26583V9.81025C17.8294 10.061 17.6844 10.291 17.4525 10.4087L12.3335 13.0054C12.2293 13.0579 12.1153 13.0841 12.0009 13.0841ZM12.7103 7.26145V11.2795L16.4105 9.40239V5.39072L12.7103 7.26145Z" fill="#161616"/>
<path d="M11.9989 13.0841C11.8845 13.0841 11.7705 13.0579 11.6663 13.0049L6.54681 10.4083C6.31491 10.2905 6.16992 10.0606 6.16992 9.80983V4.26583C6.16992 4.02823 6.30028 3.80799 6.51356 3.68517C6.72683 3.56277 6.99155 3.55557 7.21147 3.66696L12.331 6.25472C12.5633 6.37204 12.7088 6.60244 12.7088 6.85359V12.4065C12.7088 12.6445 12.5784 12.8647 12.3647 12.9871C12.2521 13.0519 12.1257 13.0841 11.9989 13.0841ZM7.58881 9.40239L11.2894 11.2795V7.26145L7.58881 5.39072V9.40239Z" fill="#161616"/>
<path d="M11.2891 12.4069V12.4065H12.7079L11.2891 12.4069Z" fill="#161616"/>
<path d="M21.9586 21.0334H2.04142C0.915624 21.0334 0 20.1588 0 19.0839V6.80198C0 5.72664 0.915624 4.85205 2.04142 4.85205H3.41331C3.80527 4.85205 4.12275 5.1553 4.12275 5.5297C4.12275 5.9041 3.80527 6.20734 3.41331 6.20734H2.04142C1.69823 6.20734 1.41889 6.47417 1.41889 6.80198V19.0839C1.41889 19.4117 1.69823 19.6781 2.04142 19.6781H21.9586C22.3018 19.6781 22.5811 19.4117 22.5811 19.0839V6.80198C22.5811 6.47417 22.3018 6.20734 21.9586 6.20734H20.5867C20.1947 6.20734 19.8773 5.9041 19.8773 5.5297C19.8773 5.1553 20.1947 4.85205 20.5867 4.85205H21.9586C23.0844 4.85205 24 5.72664 24 6.80198V19.0839C24 20.1588 23.0844 21.0334 21.9586 21.0334Z" fill="#161616"/>
<path d="M15.2947 24.04H8.70177C8.46543 24.04 8.24462 23.9274 8.11249 23.7402C7.9808 23.5525 7.95552 23.3149 8.04509 23.1057L9.3345 20.0991C9.44358 19.8445 9.70297 19.6781 9.99118 19.6781H14.0053C14.2931 19.6781 14.5525 19.8445 14.662 20.0991L15.9514 23.1057C16.041 23.3145 16.0157 23.5525 15.884 23.7402C15.7523 23.9274 15.531 24.04 15.2947 24.04ZM9.75928 22.6847H14.2376L13.5295 21.0334H10.4674L9.75928 22.6847Z" fill="#161616"/>
<path d="M23.0275 18.3952H0.973114C0.581147 18.3952 0.263672 18.092 0.263672 17.7176C0.263672 17.3432 0.581147 17.0399 0.973114 17.0399H23.0275C23.4194 17.0399 23.7369 17.3432 23.7369 17.7176C23.7369 18.092 23.4194 18.3952 23.0275 18.3952Z" fill="#161616"/>
</g>
<defs>
<clipPath id="clip0">
<rect width="24" height="24" fill="white"/>
</clipPath>
</defs>
</svg>
