<svg width="24" height="24" viewBox="0 0 24 24" fill="none" xmlns="http://www.w3.org/2000/svg">
<path d="M19.2486 24H5.29683C4.03057 24 3 22.9487 3 21.6569V2.34353C3 1.05132 4.03057 0 5.29683 0H16.2374C16.416 0 16.5872 0.0701471 16.7161 0.196324L21.3322 4.71132C21.4685 4.84456 21.5455 5.02853 21.5455 5.22088V21.6569C21.5455 22.9487 20.5149 24 19.2486 24ZM5.29683 1.41176C4.79344 1.41176 4.38389 1.83 4.38389 2.34353V21.6565C4.38389 22.1704 4.79344 22.5882 5.29683 22.5882H19.2486C19.752 22.5882 20.1616 22.1704 20.1616 21.6569V5.52221L15.9593 1.41176H15.641C15.6393 1.41176 15.638 1.41176 15.6362 1.41176H5.29683Z" fill="#161616"/>
<path d="M20.8527 5.92681H16.7914C15.9896 5.92681 15.3379 5.26152 15.3379 4.44402V0.705933H16.7218V4.44402C16.7218 4.48329 16.7529 4.51505 16.7914 4.51505H20.8527V5.92681Z" fill="#161616"/>
<path d="M13.3955 18.6694H11.1527C9.68144 18.6694 8.48438 17.4482 8.48438 15.9473V13.2945C8.48438 12.5229 9.09977 11.8947 9.85659 11.8947H14.6911C15.4475 11.8947 16.0633 12.5224 16.0633 13.2945V15.9473C16.0638 17.4482 14.8667 18.6694 13.3955 18.6694ZM9.8687 13.3064V15.9473C9.8687 16.6695 10.4447 17.2576 11.1531 17.2576H13.3959C14.1038 17.2576 14.6803 16.6699 14.6803 15.9473V13.3064H9.8687Z" fill="#161616"/>
<path d="M12.274 18.6694C11.8917 18.6694 11.582 18.3535 11.582 17.9635V15.2821C11.582 14.8921 11.8917 14.5762 12.274 14.5762C12.6563 14.5762 12.9659 14.8921 12.9659 15.2821V17.9635C12.9659 18.3535 12.6558 18.6694 12.274 18.6694Z" fill="#161616"/>
<path d="M14.4247 13.3065H10.1216C9.73933 13.3065 9.42969 12.9906 9.42969 12.6006V10.9007C9.42969 9.30103 10.7055 8 12.2732 8C13.8409 8 15.1166 9.30147 15.1166 10.9007V12.6006C15.1166 12.9906 14.8066 13.3065 14.4247 13.3065ZM10.8132 11.8947H13.7323V10.9007C13.7323 10.0797 13.0776 9.41176 12.2727 9.41176C11.4679 9.41176 10.8132 10.0797 10.8132 10.9007V11.8947Z" fill="#161616"/>
</svg>
